<svg width="12" height="12" viewBox="0 0 12 12" fill="none" xmlns="http://www.w3.org/2000/svg">
<g clip-path="url(#clip0_2_3222)">
<path d="M11.7229 3.64017C11.7164 3.15647 11.6257 2.67758 11.4548 2.22492C11.3067 1.8431 11.0803 1.49635 10.7903 1.2068C10.5003 0.917257 10.1529 0.691294 9.77048 0.54335C9.32289 0.375612 8.85004 0.284914 8.37206 0.275116C7.75665 0.247654 7.56154 0.23999 5.99935 0.23999C4.43717 0.23999 4.23693 0.23999 3.62601 0.275116C3.14824 0.284986 2.67561 0.375683 2.22823 0.54335C1.84571 0.691191 1.49832 0.917117 1.20829 1.20667C0.918245 1.49623 0.691942 1.84304 0.543855 2.22492C0.375502 2.67142 0.284849 3.14337 0.275814 3.62037C0.248307 4.2354 0.23999 4.43018 0.23999 5.98977C0.23999 7.54936 0.23999 7.74862 0.275814 8.35917C0.28541 8.83688 0.37561 9.30821 0.543855 9.7559C0.692191 10.1377 0.918662 10.4843 1.2088 10.7738C1.49894 11.0632 1.84636 11.289 2.22887 11.4368C2.67503 11.6113 3.14774 11.7085 3.62665 11.7242C4.24269 11.7517 4.43781 11.76 5.99999 11.76C7.56218 11.76 7.76241 11.76 8.37334 11.7242C8.8513 11.7148 9.32418 11.6243 9.77175 11.4566C10.1541 11.3085 10.5014 11.0825 10.7914 10.793C11.0814 10.5035 11.3078 10.1568 11.4561 9.77506C11.6244 9.328 11.7146 8.85668 11.7242 8.37833C11.7517 7.76395 11.76 7.56916 11.76 6.00893C11.7587 4.44934 11.7587 4.25136 11.7229 3.64017ZM5.99551 8.93907C4.36168 8.93907 3.03811 7.6177 3.03811 5.98658C3.03811 4.35546 4.36168 3.03409 5.99551 3.03409C6.77987 3.03409 7.53209 3.34516 8.08671 3.89886C8.64134 4.45255 8.95292 5.20353 8.95292 5.98658C8.95292 6.76963 8.64134 7.5206 8.08671 8.0743C7.53209 8.628 6.77987 8.93907 5.99551 8.93907ZM9.07063 3.61335C8.98004 3.61343 8.89033 3.59568 8.80662 3.56111C8.72292 3.52655 8.64686 3.47584 8.58281 3.41189C8.51875 3.34794 8.46796 3.27201 8.43334 3.18845C8.39871 3.10488 8.38093 3.01532 8.38101 2.92488C8.38101 2.83451 8.39884 2.74503 8.43348 2.66154C8.46812 2.57805 8.5189 2.50219 8.5829 2.43829C8.64691 2.37439 8.7229 2.3237 8.80653 2.28912C8.89015 2.25453 8.97979 2.23674 9.07031 2.23674C9.16083 2.23674 9.25046 2.25453 9.33409 2.28912C9.41772 2.3237 9.4937 2.37439 9.55771 2.43829C9.62172 2.50219 9.67249 2.57805 9.70713 2.66154C9.74177 2.74503 9.7596 2.83451 9.7596 2.92488C9.7596 3.30552 9.45126 3.61335 9.07063 3.61335Z" fill="#565451"/>
<path d="M5.9971 7.43134C6.79319 7.43134 7.43854 6.78599 7.43854 5.9899C7.43854 5.19382 6.79319 4.54846 5.9971 4.54846C5.20102 4.54846 4.55566 5.19382 4.55566 5.9899C4.55566 6.78599 5.20102 7.43134 5.9971 7.43134Z" fill="#565451"/>
</g>
<defs>
<clipPath id="clip0_2_3222">
<rect width="11.52" height="11.52" fill="white" transform="translate(0.23999 0.23999)"/>
</clipPath>
</defs>
</svg>
