<svg width="19" height="21" viewBox="0 0 19 21" fill="none" xmlns="http://www.w3.org/2000/svg">
<path d="M18.5 13.5C18.4978 12.8997 18.3155 12.3139 17.9768 11.8183C17.6381 11.3227 17.1585 10.9401 16.6 10.72L18.47 3.72001C18.5091 3.57093 18.5131 3.41484 18.4819 3.26392C18.4507 3.11301 18.385 2.97135 18.29 2.85001C18.1929 2.73632 18.0715 2.64585 17.9348 2.58528C17.798 2.52471 17.6495 2.49557 17.5 2.50001H3.8L3.47 1.24001C3.41263 1.02692 3.28638 0.838794 3.11093 0.704945C2.93547 0.571095 2.72068 0.499041 2.5 0.50001H0.5V2.50001H1.73L4.21 11.76C4.2686 11.9782 4.39934 12.1701 4.58092 12.3044C4.76251 12.4388 4.98424 12.5077 5.21 12.5H15.5C15.7652 12.5 16.0196 12.6054 16.2071 12.7929C16.3946 12.9804 16.5 13.2348 16.5 13.5C16.5 13.7652 16.3946 14.0196 16.2071 14.2071C16.0196 14.3947 15.7652 14.5 15.5 14.5H2.5C2.23478 14.5 1.98043 14.6054 1.79289 14.7929C1.60536 14.9804 1.5 15.2348 1.5 15.5C1.5 15.7652 1.60536 16.0196 1.79289 16.2071C1.98043 16.3947 2.23478 16.5 2.5 16.5H3.68C3.51554 16.9531 3.46269 17.4392 3.52593 17.9171C3.58917 18.395 3.76665 18.8506 4.04332 19.2454C4.31999 19.6401 4.68772 19.9624 5.11535 20.1849C5.54299 20.4074 6.01795 20.5235 6.5 20.5235C6.98205 20.5235 7.45701 20.4074 7.88465 20.1849C8.31228 19.9624 8.68001 19.6401 8.95668 19.2454C9.23335 18.8506 9.41083 18.395 9.47407 17.9171C9.53731 17.4392 9.48446 16.9531 9.32 16.5H11.68C11.5303 16.9126 11.4729 17.353 11.512 17.7902C11.551 18.2274 11.6856 18.6507 11.906 19.0302C12.1265 19.4098 12.4276 19.7363 12.788 19.9868C13.1485 20.2373 13.5595 20.4056 13.9921 20.48C14.4247 20.5543 14.8683 20.5328 15.2917 20.417C15.715 20.3012 16.1078 20.0939 16.4424 19.8097C16.7769 19.5255 17.045 19.1714 17.2277 18.7723C17.4105 18.3732 17.5034 17.9389 17.5 17.5C17.4981 16.9834 17.3602 16.4764 17.1 16.03C17.5276 15.7604 17.8802 15.3871 18.1249 14.9448C18.3697 14.5025 18.4987 14.0055 18.5 13.5ZM14.59 10.5H6L4.34 4.50001H16.2L14.59 10.5ZM6.5 18.5C6.30222 18.5 6.10888 18.4414 5.94443 18.3315C5.77998 18.2216 5.65181 18.0654 5.57612 17.8827C5.50043 17.7 5.48063 17.4989 5.51921 17.3049C5.5578 17.1109 5.65304 16.9328 5.79289 16.7929C5.93275 16.653 6.11093 16.5578 6.30491 16.5192C6.49889 16.4806 6.69996 16.5004 6.88268 16.5761C7.06541 16.6518 7.22159 16.78 7.33147 16.9444C7.44135 17.1089 7.5 17.3022 7.5 17.5C7.5 17.7652 7.39464 18.0196 7.20711 18.2071C7.01957 18.3947 6.76522 18.5 6.5 18.5ZM14.5 18.5C14.3022 18.5 14.1089 18.4414 13.9444 18.3315C13.78 18.2216 13.6518 18.0654 13.5761 17.8827C13.5004 17.7 13.4806 17.4989 13.5192 17.3049C13.5578 17.1109 13.653 16.9328 13.7929 16.7929C13.9327 16.653 14.1109 16.5578 14.3049 16.5192C14.4989 16.4806 14.7 16.5004 14.8827 16.5761C15.0654 16.6518 15.2216 16.78 15.3315 16.9444C15.4414 17.1089 15.5 17.3022 15.5 17.5C15.5 17.7652 15.3946 18.0196 15.2071 18.2071C15.0196 18.3947 14.7652 18.5 14.5 18.5Z" fill="#666666"/>
</svg>
