<svg width="10" height="8" viewBox="0 0 10 8" fill="none" xmlns="http://www.w3.org/2000/svg">
<path opacity="0.7" d="M9.66288 1.02361C9.32002 1.19633 8.97716 1.2539 8.57716 1.31148C8.97716 1.08119 9.26288 0.735755 9.37716 0.275178C9.03431 0.505466 8.63431 0.620611 8.17716 0.735755C7.83431 0.390322 7.32002 0.160034 6.80573 0.160034C5.8343 0.160034 4.97716 1.02362 4.97716 2.05991C4.97716 2.23263 4.97716 2.34777 5.03431 2.46292C3.49145 2.40534 2.06288 1.65691 1.14859 0.505466C0.977162 0.793327 0.92002 1.08119 0.92002 1.48419C0.92002 2.11748 1.26288 2.6932 1.77716 3.03864C1.49145 3.03864 1.20573 2.92349 0.92002 2.80835C0.92002 3.7295 1.54859 4.47794 2.40573 4.65065C2.23431 4.70823 2.06288 4.70823 1.89145 4.70823C1.77716 4.70823 1.66288 4.70823 1.54859 4.65065C1.77716 5.39909 2.46288 5.97481 3.32002 5.97481C2.69145 6.49296 1.89145 6.78082 0.977162 6.78082C0.805734 6.78082 0.691448 6.78082 0.52002 6.78082C1.37716 7.29897 2.34859 7.6444 3.37716 7.6444C6.80573 7.6444 8.69145 4.7658 8.69145 2.2902C8.69145 2.23263 8.69145 2.11748 8.69145 2.05991C9.09145 1.77205 9.43431 1.42662 9.66288 1.02361Z" fill="#121212"/>
</svg>
